<?xml version="1.0" ?><svg viewBox="0 0 40 40" xmlns="http://www.w3.org/2000/svg"><defs><style>.cls-1{fill-rule:evenodd;}</style></defs><g id="Logos"><g id="Hermés"><polygon class="cls-1" points="27.66 20.52 28.98 20.52 29.31 20.91 28.02 20.91 27.66 20.52"/><path class="cls-1" d="M11.9,19.38h-.62v-.16h.46a.8.8,0,0,0,.16.16Z"/><path class="cls-1" d="M27.56,19.38a.2.2,0,0,1,.15-.16H28v.16Z"/><path class="cls-1" d="M17.26,19.5a1.17,1.17,0,0,1-.9,0H13.1a1.31,1.31,0,0,1-1,0h-.83v.31H28V19.5Z"/><path class="cls-1" d="M13.3,19.38l.18-.16H16a.81.81,0,0,0,.16.16Z"/><path class="cls-1" d="M16.82,19.29a.8.8,0,1,0-.8-.79.8.8,0,0,0,.8.79v.16a1,1,0,1,1,.95-.95,1,1,0,0,1-.95.95v-.16Z"/><path class="cls-1" d="M13.69,18.37a1.09,1.09,0,1,0-1.08,1.08,1.09,1.09,0,0,0,1.08-1.08h-.18a.91.91,0,1,1-1.82,0,.91.91,0,0,1,1.82,0Z"/><path class="cls-1" d="M17.33,19,17,18.66h0s0,0,0,0h0l.49.13s.05,0,.05,0a.3.3,0,0,1,0-.11h-.09l-.45-.13s0,0,0,0v-.09l.47-.18s.05,0,.05,0,0-.1,0-.12a.06.06,0,0,1-.05.05h0l-.49.18h0a0,0,0,0,0,0,0s0,0,0,0l.27-.41.06,0-.11-.07s0,.05,0,.07l-.27.41h0l0,0a0,0,0,0,1,0,0l0-.48s0-.06,0-.06h-.13s0,0,0,.06l0,.48s0,0,0,0a.14.14,0,0,0,0,0,0,0,0,0,1,0,0l-.31-.38s0-.05,0-.06l-.1.08a.11.11,0,0,1,.07,0l.31.38h0s0,0,0,.05l0,0-.45-.13s-.05,0-.05-.05,0,.1,0,.11h.07l.46.12s0,0,0,0v.08l-.45.19s-.05,0-.05,0a.3.3,0,0,0,0,.12.06.06,0,0,1,0-.05l.44-.2a0,0,0,0,1,0,0,0,0,0,0,1,0,0,0,0,0,0,1,0,0l-.28.41-.05,0a.23.23,0,0,0,.1.07s0-.05,0-.07l.28-.39s0,0,0,0a.06.06,0,0,0,.05,0h0l0,.5s0,.05,0,.05h.13s0,0,0-.07l0-.48h0a.11.11,0,0,0,.06,0s0,0,0,0l.33.36s0,.05,0,.07l.08-.08s-.05,0-.05,0Z"/><path class="cls-1" d="M12.57,17.75a4.18,4.18,0,0,1,1.18.13s0,0,0,.05a6,6,0,0,1-1.16.11A4.76,4.76,0,0,1,11.41,18s0,0,0,0a3.77,3.77,0,0,1,1.16-.19v-.09a4.7,4.7,0,0,0-1.39.28s0,0,0,0a5.11,5.11,0,0,0,1.41.12A5.89,5.89,0,0,0,14,17.93c.07,0,0-.05,0-.05a5,5,0,0,0-1.43-.22v.09Z"/><path class="cls-1" d="M17.44,17.45a2.22,2.22,0,0,1-.41.1c-.08,0-.49,0-.77,0s-.41.06-.42,0a2,2,0,0,0-.28-.44,4.37,4.37,0,0,1-2.22-.23v-.1a.3.3,0,0,0,.12,0c-.12-.17-.31-.22-.43-.4s-.08-.14-.14-.19c0,.18-.14.31-.15.46a.54.54,0,0,0,.28,0,.2.2,0,0,1,.18.05.34.34,0,0,0,.14,0v.1a.46.46,0,0,1-.16-.07.16.16,0,0,1-.18,0,.86.86,0,0,0-.25,0,.64.64,0,0,0-.55.26.32.32,0,0,0,0,.3,1.89,1.89,0,0,0,.28.33l-.13,0c-.2-.18-.34-.35-.31-.56.1-.46.52-.39.64-.59a1.45,1.45,0,0,0,0-.85c-.28-.12-.63-.26-.69-.59a.16.16,0,0,1,.09-.2.59.59,0,0,1,.37.1s-.05-.15.06-.15.25.3.3.31l0,.12a4.37,4.37,0,0,1-.49-.25c-.07,0-.15-.08-.2,0s0,.18.07.26c.77.8,2.05-.05,2.88.52,0-.05,0-.06,0-.08-.57-.54-1.49-.26-2.23-.44l0-.12c.91.23,2.13-.14,2.6.91.31.44.64,1.14,1.31,1.16a1.24,1.24,0,0,0,1.17-.59,4.66,4.66,0,0,1,1.21-1.85c.07,0,.1,0,.07,0a3.68,3.68,0,0,0-.74,1.07c.25.93.79.74.92.72,0-.34,0-1.36.73-1.61a1.53,1.53,0,0,1,1.53-.18,3.8,3.8,0,0,0-1,1.86l-.64.18a.9.9,0,0,0,0-.45c-.07,0-.13.09-.28.17s0-.08,0-.08.16-.1.29-.18a1.41,1.41,0,0,1,.23-1.19c-.64.22-.46,1.56-.39,1.73a1.25,1.25,0,0,1-.43.08l0-.23c-.28.1-.76,0-1-.71-.23.48-.43,1.23-1,1.43Z"/><path class="cls-1" d="M27.44,15.45s-.05,0-.08,0,0,0,0,0,.05,0,.06,0,0,0,0,0Z"/><path class="cls-1" d="M12.77,18.61l.34.4a.07.07,0,0,1,0,.1.5.5,0,0,0,.15-.14.08.08,0,0,1-.1,0l-.36-.4v0h0s0,0,0,0l.51.18c.05,0,.07.06.07.08l.06-.16a.11.11,0,0,1-.1,0l-.5-.18h0v0h0l.52-.08c.07,0,.1,0,.1,0s0-.15,0-.18a.14.14,0,0,1-.1.08l-.5.08s0,0,0,0,0,0,0-.05v0l.41-.34c.05,0,.09,0,.11,0l-.13-.15s0,.07,0,.12l-.4.33s0,0,0,0,0,0,0,0,0,0,0,0l.18-.51a.08.08,0,0,1,.08-.06.67.67,0,0,0-.18-.07s0,.07,0,.12l-.18.49s0,0,0,0h-.05l0,0-.1-.53a.13.13,0,0,1,0-.09.67.67,0,0,0-.18,0,.13.13,0,0,1,.09.08l.09.51s0,0,0,0l0,0h0l-.36-.39c0-.05,0-.1,0-.1a.38.38,0,0,0-.14.11.14.14,0,0,1,.1,0l.36.4h0l0,0h0l-.49-.18s-.08-.07-.06-.09a.89.89,0,0,0-.07.19.12.12,0,0,1,.12,0l.49.16v.07h0l-.53.1c-.05,0-.1,0-.1-.05a.59.59,0,0,0,0,.2s0-.06.08-.08l.51-.1s0,0,0,0,0,0,0,0v0l-.41.32c0,.05-.1,0-.1,0s.08.13.1.15a.14.14,0,0,1,0-.1l.43-.33h0l0,0s0,0,0,0l-.19.49c0,.05-.06.08-.08.07a1,1,0,0,0,.18.06s-.05-.05,0-.09l.18-.51a0,0,0,0,1,0,0s0,0,0,0a0,0,0,0,1,0,0l.1.51a.15.15,0,0,1-.05.12.78.78,0,0,0,.18-.05s-.06,0-.06-.07l-.1-.52v0l.05,0Z"/><path class="cls-1" d="M27.21,15.52s0,0,0,0,0-.05,0-.1-.1-.2-.05-.23.21,0,.21,0,.2-.19.28-.24a.49.49,0,0,1,.34.34c0,.05-.11.13-.24.3.05.11.05.2,0,.26a.11.11,0,0,1-.08,0c0,.16.2.26.26.39s.28.59,0,.8a.46.46,0,0,0-.16.15c.05.26.15.54.19.82l-.31,0c0,.1-.13.28-.1.38s0,0,0,0a2.06,2.06,0,0,1,.05.65c0,.07.05.07,0,.18s-.17.1-.18.15-.31.1-.31.06.16-.18.19-.27A1.7,1.7,0,0,0,27.1,18c-.08-.05-.15.08-.2.14a2.38,2.38,0,0,1,.22.79c0,.08.09.2,0,.31l-.26.13H26s-.1-.09-.08-.16h.85s.08,0,.17-.15c0-.39-.41-1-.35-1.16s.2-.44.33-.77l.06,0c-.14.49-.36.74-.32.89a.77.77,0,0,0,.1.24l0,.1a.47.47,0,0,0,.1.2A.19.19,0,0,0,27,18.5a.44.44,0,0,0-.08-.2l-.13.05,0-.1c.09,0,.16-.06.08-.11.23-.12-.05-.08,0-.13a.62.62,0,0,0,.21-.46,0,0,0,0,1,0-.05,4.18,4.18,0,0,0,.26.85v.08a.27.27,0,0,0,0,.2c.15,0,.13,0,.1-.2h-.14v-.08h.1a.4.4,0,0,1-.05-.23c0-.05,0-.15.07.06.05,0,.13-.38.15-.51-.31.07,0-.29-.23-.31l.11-.2a.09.09,0,0,0-.13-.08L27.3,17c-.05,0-.1-.1-.17-.15a.66.66,0,0,0-.15.22s0,0,.05,0,.09.05.17,0,.13-.05.1-.12l.06.08c-.06,0-.06.15-.06.23s-.07-.11-.2-.11-.12-.08-.17-.07l-.06,0a2.41,2.41,0,0,0,0-.38,3.09,3.09,0,0,1,.23-.7c0-.07.24-.2.23-.27a.13.13,0,0,1,.05.07c0,.08-.18.08-.17.26.1-.18.38-.16.4-.37s.06-.05.06-.19a.62.62,0,0,1-.14-.18s0-.11-.19-.11a1.16,1.16,0,0,1-.06.16s-.05.05,0,.07,0,0,0,.1a.12.12,0,0,0,0,.13c.13.06.23,0,.08.08a.09.09,0,0,1,0,0,.3.3,0,0,0-.07-.1s-.1,0-.08-.11,0-.1,0-.13Z"/><path class="cls-1" d="M22.8,14.89c0,.12-.05.2-.05.31.12.28,0,.5,0,.76-.13-.08-.17-.3-.22-.53a1.55,1.55,0,0,1,0-.47l.19-.07Z"/><path class="cls-1" d="M22.46,15a1.62,1.62,0,0,0,.18,1,13.58,13.58,0,0,1-1.87.66,3.41,3.41,0,0,1,1-1.8,3.08,3.08,0,0,0,.67.09Z"/><path class="cls-1" d="M20.85,18.83c-.16.05-.16.14-.06.24a.49.49,0,0,1,.13.15H19.87c0,.05.05.08.08.16h5.8c0-.08-.06-.18-.09-.27-.41-.15-.41-.53-.43-1a.41.41,0,0,1,0-.14,2.14,2.14,0,0,1-.2-1.28l.1-.18c.08-.12,0-.18,0-.31L26.36,16a0,0,0,0,0,0-.08h0s0,0,0,0l-1.18.21c.07-.3-.19-.4-.08-.64a2.37,2.37,0,0,0,.84.54L26,16a3,3,0,0,1-1.11-.85.24.24,0,0,1-.1-.05s.08.13.07.15a.61.61,0,0,1-.56,0,6.15,6.15,0,0,1-1.4.8,1.42,1.42,0,0,0,.4.79s0,0,0,0a1.93,1.93,0,0,0,.92.37c.06.2.31.84.32.94s.09.1.09.1a.86.86,0,0,1,.14.32l0,.35c0,.08.11,0,.13.1l0,.21h.24c-.13-.11-.05-.31-.21-.39s0-.35-.11-.43-.28-.72-.41-1.2l.08-.11a1.22,1.22,0,0,1-1-.21c-.24-.12-.1,0,0-.07a1.38,1.38,0,0,0,.89.1c0,.05.1.1.1.18l-.08.11c.08-.08.14,0,.19.2s.13.35.18.51.12.38.17.49.05,0,.08.07c.11.36.15.41.13.57s.21,0,.2.18H21.07c.06-.26-.09-.49,0-.74-.17-.26-.58-.46-.51-.82s.83-.55.69-.88c.59-.3.88.19,1.42.15a2.27,2.27,0,0,0,.59-.09,2.13,2.13,0,0,1-.54-.7,19.13,19.13,0,0,1-3.49,1.1l-.1,0a12.81,12.81,0,0,0-1.92.53,5.54,5.54,0,0,0-1.7.44c-.08,0-.1.08,0,.12a3.9,3.9,0,0,0,2.54-.4L18,17.83a7.83,7.83,0,0,1-1.4.42,2.57,2.57,0,0,1-.9,0c-.05,0-.05,0,0,0,.73-.29,2.16-.55,2.36-.31a.61.61,0,0,1,.26.18c.06.08.2.05.29,0s.15-.15.15-.27h-.15a1.36,1.36,0,0,0-.36.06.8.8,0,0,0-.32-.19,3,3,0,0,1,.91-.23c-.21.14-.11.32-.23.36h.15c0-.06,0-.11,0-.14.15-.36.77-.41,1.09-.5a1.2,1.2,0,0,1-.28.27c0,.5-.22,1-.25,1.46.15,0,.15.16.18.26s-.11,0-.18,0c-.23-.11.05-.31-.13-.47a5.33,5.33,0,0,0,.25-1.25c-.07,0-.09.07-.12.12a8.52,8.52,0,0,1-.26,1.16s.11.07.11.13,0,.23-.05.33H17.62l-.14.16h2.26V19.3a1.21,1.21,0,0,1,0-1.28l.39-.52c.33-.13.52-.53.87-.66,0,.18-.22.25-.33.35-.13.28-.51.31-.56.62a6,6,0,0,0,.54.43c.18.11.13.36.27.47a.09.09,0,0,1,0,.12Z"/><path class="cls-1" d="M23.36,12.91c-.06.1-.2.16-.11.34a.22.22,0,0,0-.07.33.25.25,0,0,0,0,.35c-.13.14,0,.27.09.32a.31.31,0,0,0,0,.27h0a.89.89,0,0,1-.27.31,3.85,3.85,0,0,0-.05,1.1,6.18,6.18,0,0,0,1.28-.76c-.31-.21-.55-.72-.9-.69a2,2,0,0,1,.33-1.65c.06,0,.16-.05.21-.08-.21,0-.49.09-.69,0,0,0,.1.16.2.18Z"/><path class="cls-1" d="M24.46,12.75l.06,0s.07,0,.07,0,0-.06,0-.08l-.1,0a.46.46,0,0,0,0,.09l0,0-.23-.17,0,0s.1-.1.15-.1a.81.81,0,0,1,.37,0,.6.6,0,0,1,.15.2c.18.13.48.13.66.28,0,.05.05.13,0,.16s-.16,0-.18,0l0,.1-.06,0s0-.12,0-.12-.1,0-.13,0,0,0,0,.07.09.05.14,0l.06,0h.08c0,.09-.05.12-.16.09s.15.14.16.18-.05.06-.16,0a4.77,4.77,0,0,1-.76.59c-.29.13,0-.07,0-.07a3.33,3.33,0,0,0,.7-.59.53.53,0,0,1-.05-.15.43.43,0,0,0-.31.07,4.11,4.11,0,0,1,.1,2l0,0a4.4,4.4,0,0,0-.12-2,1,1,0,0,1-.36,0c0,.67.51.77.31,1.65-.57-.09-1-.8-1.31-.73,0-.12-.13-.32,0-.38,0-.1-.07-.23.08-.31-.05-.13-.07-.25.08-.35a.21.21,0,0,1,.16-.29A.35.35,0,0,1,24,12.7a.34.34,0,0,1-.18-.22.53.53,0,0,0,.44.1l.23.17Z"/><polygon class="cls-1" points="5 21.12 6.8 21.12 6.8 21.78 6.25 21.78 6.25 22.88 8.28 22.88 8.28 21.78 7.71 21.78 7.71 21.12 9.54 21.12 9.54 21.78 8.95 21.78 8.95 25.01 9.54 25.01 9.54 25.65 7.71 25.65 7.71 25.01 8.28 25.01 8.28 23.52 6.25 23.52 6.25 25.01 6.8 25.01 6.8 25.65 5 25.65 5 25.01 5.57 25.01 5.57 21.78 5 21.78 5 21.12"/><polygon class="cls-1" points="26.57 21.12 30.28 21.12 30.28 22.39 29.66 22.39 29.66 21.78 27.85 21.78 27.85 22.86 29.39 22.86 29.39 23.5 27.85 23.5 27.85 25.01 29.64 25.01 29.64 24.14 30.3 24.14 30.3 25.65 26.57 25.65 26.57 25.01 27.18 25.01 27.18 21.78 26.57 21.78 26.57 21.12"/><polygon class="cls-1" points="10.38 21.12 14.1 21.12 14.1 22.39 13.46 22.39 13.46 21.78 11.66 21.78 11.66 22.86 13.2 22.86 13.2 23.5 11.66 23.5 11.66 25.01 13.44 25.01 13.44 24.14 14.1 24.14 14.1 25.65 10.38 25.65 10.38 25.01 10.98 25.01 10.98 21.78 10.38 21.78 10.38 21.12"/><path class="cls-1" d="M33.92,23.06c-.46-.12-.77-.1-1.25-.25s-.49-.39-.49-.56.18-.62.84-.62a1,1,0,0,1,1.11.82h.64V21.12h-.62v.3l0,.08v0s0-.05-.1-.1v0A1.69,1.69,0,0,0,33,21a1.36,1.36,0,0,0-1.46,1.23,1.18,1.18,0,0,0,1.05,1.18c.47.13.72.13,1.13.25a.74.74,0,0,1,.65.7c0,.33-.21.77-1.06.77A1.15,1.15,0,0,1,32,24.06h-.61v1.59H32v-.3h0l0-.08a.25.25,0,0,0,.1.1h0a2,2,0,0,0,1.26.41A1.49,1.49,0,0,0,35,24.4a1.27,1.27,0,0,0-1.08-1.34Z"/><polygon class="cls-1" points="25.11 25.01 25.11 21.78 25.72 21.78 25.72 21.12 24.08 21.12 22.98 23.78 22.97 23.91 22.93 23.78 21.85 21.12 20.2 21.12 20.2 21.78 20.8 21.78 20.8 25.01 20.2 25.01 20.2 25.65 22.05 25.65 22.05 25.01 21.48 25.01 21.48 22.04 21.48 21.84 21.52 21.99 22.79 25.01 23.15 25.01 24.41 21.99 24.44 21.83 24.46 22.01 24.46 25.01 23.89 25.01 23.89 25.65 25.72 25.65 25.72 25.01 25.11 25.01"/><path class="cls-1" d="M18.89,25l0-.92a1,1,0,0,0-.43-.74,1.05,1.05,0,0,0-.19-.05.69.69,0,0,0,.23,0h0a1,1,0,0,0,.54-1,1.09,1.09,0,0,0-.46-.93,1.51,1.51,0,0,0-.92-.25H15.11v.66h.58V25h-.58v.64h1.81V25h-.58V23.58h1.25a.55.55,0,0,1,.59.53l.05,1.54h1.23V25ZM17.72,23H16.34V21.78h1.3a1.27,1.27,0,0,1,.44,0,.56.56,0,0,1,.31.54.63.63,0,0,1-.67.59Z"/><path class="cls-1" d="M14.89,27.25c.59,0,.85.33.85.74s-.28.72-.9.72h-.43v1.13H14V27.25Zm-.48,1.13h.46c.28,0,.47-.14.47-.41s-.11-.39-.45-.39h-.48v.8Z"/><path class="cls-1" d="M18.67,29.84h-.41l-.33-.77H16.8l-.31.77h-.41l1.15-2.6h.26l1.18,2.6ZM17,28.73h.84l-.45-1-.39,1Z"/><polygon class="cls-1" points="22.98 29.84 22.61 29.84 22.61 27.25 22.98 27.25 22.98 29.84"/><path class="cls-1" d="M25.69,27.81a1.06,1.06,0,0,0-.67-.26c-.25,0-.45.11-.45.29,0,.51,1.22.5,1.22,1.33a.73.73,0,0,1-.79.69,1.36,1.36,0,0,1-.79-.23v-.48a1,1,0,0,0,.76.38c.31,0,.46-.18.46-.33,0-.52-1.23-.59-1.23-1.29,0-.43.34-.69.85-.69a1.15,1.15,0,0,1,.64.18v.41Z"/><path class="cls-1" d="M21.39,29.53a1.91,1.91,0,0,1-.14-.21,1.9,1.9,0,0,0-.61-.71A.66.66,0,0,0,21.1,28c0-.44-.35-.72-.9-.72h-.68v2.59h.4V28.71h.16c.2,0,.36.07.71.59l.36.54h.44l-.2-.31Zm-1.23-1.15h-.24v-.82h.24c.38,0,.53.15.53.4s-.1.42-.53.42Z"/></g></g></svg>